<?xml version="1.0" encoding="UTF-8"?><svg id="Layer_1" xmlns="http://www.w3.org/2000/svg" viewBox="0 0 512 512"><defs><style>.cls-1{fill:#f6f0ea;}.cls-2{fill:#142328;}.cls-3{fill:#06c167;}</style></defs><g id="Layer_2"><g id="Squircles"><path class="cls-2" d="M118.12,28.5H393.88c49.5,0,89.62,40.12,89.62,89.62V393.88c0,49.5-40.12,89.62-89.62,89.62H118.12c-49.5,0-89.62-40.12-89.62-89.62V118.12c-.04-49.5,40.12-89.62,89.62-89.62Z"/><path class="cls-3" d="M246.56,333.4c.14-13.04-10.3-23.77-23.35-23.91-13.04-.14-23.77,10.3-23.91,23.35s10.3,23.77,23.35,23.91h.28c12.87,.18,23.45-10.13,23.63-22.99v-.35m19.3-38.18v76.61h-19.65v-6.89c-7,5.66-15.75,8.72-24.79,8.61-22.19,.6-40.68-16.91-41.28-39.13-.6-22.19,16.91-40.68,39.13-41.28,.7-.04,1.44-.04,2.14,0,9.07-.04,17.86,3.09,24.89,8.86v-6.82h19.55v.04Zm65.26,59.14h-14.77c-4.5,0-7.42-1.97-7.42-6.01v-35.86h22.19v-17.26h-22.12v-21.83h-19.87v21.83h-14.91v17.33h14.94v40.71c0,10.27,7.42,18.42,20.74,18.42h21.27l-.07-17.33Zm44.79,19.3c22.71,0,35.51-10.62,35.51-25.31,0-10.44-7.56-18.25-23.45-21.59l-16.77-3.38c-9.74-1.76-12.8-3.55-12.8-7.07,0-4.64,4.68-7.45,13.33-7.45,9.35,0,16.24,2.5,18.21,10.97h19.65c-1.09-15.93-12.83-26.55-36.64-26.55-20.53,0-34.98,8.33-34.98,24.44,0,11.15,7.95,18.42,25.07,21.97l18.74,4.25c7.38,1.41,9.35,3.34,9.35,6.36,0,4.78-5.66,7.81-14.63,7.81-11.36,0-17.86-2.46-20.36-10.97h-19.87c2.95,15.89,15.08,26.51,39.62,26.51M100.51,268.08h74.12v17.69h-54.11v25.35h52.67v17.02h-52.67v25.53h54.11v17.72H100.51v-103.3Z"/><path class="cls-1" d="M409.74,178.35v-13.89h-5.27c-7.49-.32-14.56,3.48-18.46,9.92v-9.32h-15.08v75.42h15.22v-42.89c0-11.67,7.24-19.23,17.19-19.23h6.4Zm-109.42,17.58c2.57-12.94,15.12-21.38,28.06-18.81,9.49,1.86,16.91,9.32,18.81,18.81h-46.87Zm23.84-32.35c-21.62-.18-39.31,17.19-39.48,38.82v.39c0,22.5,17.79,39.34,40.86,39.34,13.01,.25,25.31-5.73,33.16-16.1l-11-8.02c-5.1,7.14-13.36,11.29-22.12,11.11-12.66,.18-23.52-8.97-25.53-21.45h62.34v-4.92c0-22.47-16.24-39.17-38.43-39.17m-86.74,65.54c-14.45-.11-26.12-11.88-26.02-26.37s11.88-26.12,26.37-26.02c14.38,.11,26.02,11.78,26.02,26.19-.04,14.49-11.81,26.23-26.3,26.19h-.07m-41.31,11.36h15.08v-9.49c7.28,7.28,17.16,11.36,27.42,11.36,21.76,.6,39.91-16.6,40.47-38.36,.6-21.76-16.6-39.91-38.36-40.47-.7-.04-1.41-.04-2.11,0-10.23,0-20.08,4.08-27.28,11.36v-37.94h-15.22v103.54Zm-53.65-12.13c14.63,0,25.91-11.11,25.91-27.49v-63.92h15.82v103.54h-15.68v-9.63c-7.35,7.42-17.4,11.5-27.85,11.36-22.71,0-39.94-16.14-39.94-40.54v-64.73h15.96v63.92c0,16.7,11.15,27.49,25.95,27.49"/></g></g></svg>